<svg xmlns="http://www.w3.org/2000/svg" xmlns:xlink="http://www.w3.org/1999/xlink" id="Calque_1" viewBox="0 0 904.14 192.45"><defs><style>.cls-1,.cls-2,.cls-3{fill:none;}.cls-2{clip-path:url(#clippath-1);}.cls-4{fill:#1d1d1b;}.cls-3{clip-path:url(#clippath);}</style><clipPath id="clippath"><rect class="cls-1" y="0" width="904.14" height="192.45"></rect></clipPath><clipPath id="clippath-1"><rect class="cls-1" y="0" width="904.14" height="192.45"></rect></clipPath></defs><polygon class="cls-4" points="777.42 3 777.42 189.45 904.14 189.45 904.14 139.97 841.4 139.97 841.4 119.69 897.14 119.69 897.14 72.72 841.4 72.72 841.4 52.48 904.14 52.48 904.14 3 777.42 3"></polygon><polygon class="cls-4" points="418.62 61.48 456.36 61.48 456.36 189.45 522.83 189.45 522.83 61.48 560.58 61.48 560.58 3 418.62 3 418.62 61.48"></polygon><g class="cls-3"><path class="cls-4" d="m330.14,52.99c2.78.35,5.3,1.15,7.49,2.37,2.23,1.25,4.03,2.96,5.36,5.09,1.35,2.15,2.03,5.02,2.03,8.53,0,7.2-2.36,12.12-7.03,14.63-4.46,2.4-9.83,3.62-15.97,3.62h-10.25v-34.75h10c2.85,0,5.67.17,8.37.51m3.37-49.99h-85.73v186.45h63.98v-54.24h21.75c10.69,0,20.76-1.41,29.95-4.21,9.16-2.78,17.2-6.96,23.9-12.44,6.68-5.46,12.01-12.44,15.85-20.76,3.84-8.33,5.78-18.2,5.78-29.32s-1.94-20.36-5.78-28.44c-3.83-8.07-9.17-14.93-15.85-20.4-6.7-5.47-14.74-9.66-23.9-12.44-9.2-2.79-19.28-4.21-29.95-4.21"></path></g><rect class="cls-4" x="158.21" y="3" width="63.98" height="186.45"></rect><polygon class="cls-4" points="0 3 0 61.48 37.74 61.48 37.74 189.45 104.22 189.45 104.22 61.48 141.96 61.48 141.96 3 0 3"></polygon><g class="cls-2"><path class="cls-4" d="m697.74,96.72c0,5.41-.82,10.49-2.42,15.08-1.62,4.62-4,8.6-7.08,11.86-3.08,3.25-6.73,5.81-10.86,7.6-4.13,1.8-8.84,2.71-14.01,2.71s-9.67-.91-13.88-2.71c-4.21-1.79-7.91-4.35-10.98-7.61-3.08-3.25-5.46-7.24-7.08-11.86-1.61-4.58-2.42-9.66-2.42-15.08s.82-10.25,2.42-14.83c1.61-4.59,3.9-8.69,6.8-12.18,2.93-3.52,6.55-6.3,10.76-8.27,4.22-1.97,9.06-2.97,14.38-2.97s10.16,1,14.38,2.97c4.22,1.97,7.84,4.75,10.76,8.27,2.9,3.49,5.19,7.59,6.8,12.18,1.61,4.59,2.42,9.58,2.42,14.83m55.57,40.21c5.12-11.73,7.72-25.26,7.72-40.21s-2.6-28.03-7.73-39.84c-5.12-11.81-12.17-22.05-20.95-30.42-8.77-8.36-19.21-14.94-31.02-19.54-11.82-4.6-24.6-6.93-37.97-6.93s-26.15,2.33-37.97,6.93c-11.82,4.6-22.25,11.17-31.02,19.54-8.77,8.36-15.82,18.6-20.95,30.42-5.13,11.82-7.73,25.22-7.73,39.84s2.6,28.49,7.72,40.21c5.12,11.73,12.17,21.84,20.94,30.04,8.77,8.2,19.21,14.57,31.01,18.91,11.82,4.35,24.6,6.56,37.98,6.56s26.16-2.21,37.98-6.56c11.8-4.34,22.24-10.71,31.01-18.91,8.77-8.2,15.82-18.31,20.94-30.04"></path></g></svg>